# xmcd
#
# Track frame offsets: 
#        150
#        15005
#        26895
#        39920
#        50409
#        63158
#        74627
#        88158
#        102895
#        115015
#        127124
#        138607
#        155150
#        171188
#        182853
#        195359
#        210732
#        225690
#        238316
#        250981
#
# Disc length: 3521 seconds
#
# Revision: 0
# Processed by: cddbd v1.5.2PL0 Copyright (c) Steve Scherf et al.
# Submitted via: ExactAudioCopyFreeDBPlugin 1.0
#
DISCID=1e0dbf14
DTITLE=Various Artist - Classic Stax - 1
DYEAR=1900
DGENRE=Soul
TTITLE0=Isaac Hayes - Theme From Shaft
TTITLE1=Sam and Dave - Soul Man
TTITLE2=Booker T and The MGs - Green Onions
TTITLE3=The Bar-Keys - Soul Finger
TTITLE4=The Emotions - So I Can Love You
TTITLE5=Rufus Thomas - Walking The Dog
TTITLE6=Otis Redding - Tramp
TTITLE7=The Staple Singers - I'll Take You There
TTITLE8=Otis Redding - (Sittin' On) The Dock Of The Bay
TTITLE9=Linda Lyndell - What A Man
TTITLE10=Eddie Floyd - Bring It On Home To Me
TTITLE11=Margie Joseph - Your Sweet Lovin'
TTITLE12=The Soul Children - I'll Be The Other Woman
TTITLE13=The Mar-Keys - Last Night
TTITLE14=Johnnie Taylor - Who's Making Love
TTITLE15=The Dramatics - In The Rain
TTITLE16=Hot Sauce - Bring It Home (And Give It To Me)
TTITLE17=Albert King - Born Under A Bad Sign
TTITLE18=Carla Thomas - Pick Up The Pieces
TTITLE19=Otis Redding - I've Been Loving You Too Long
EXTD=
EXTT0=
EXTT1=
EXTT2=
EXTT3=
EXTT4=
EXTT5=
EXTT6=
EXTT7=
EXTT8=
EXTT9=
EXTT10=
EXTT11=
EXTT12=
EXTT13=
EXTT14=
EXTT15=
EXTT16=
EXTT17=
EXTT18=
EXTT19=
PLAYORDER=
